<?xml version="1.0" encoding="UTF-8"?>
<svg version="1.1" xmlns="http://www.w3.org/2000/svg" width="2000" height="2000">
<path d="M0 0 C660 0 1320 0 2000 0 C2000 660 2000 1320 2000 2000 C1340 2000 680 2000 0 2000 C0 1340 0 680 0 0 Z " fill="#FF5757" transform="translate(0,0)"/>
<path d="M0 0 C0.82937183 -0.00152655 1.65874365 -0.0030531 2.51324796 -0.0046259 C5.29201779 -0.0085223 8.07073313 -0.00531121 10.84950322 -0.00213462 C12.87059899 -0.00348133 14.89169451 -0.00526526 16.91278955 -0.00744686 C22.4872748 -0.01218423 28.06174375 -0.01067279 33.63622981 -0.00816908 C39.69325077 -0.00653865 45.75026821 -0.01067465 51.80728805 -0.01407826 C62.43015803 -0.01923798 73.0530228 -0.0206832 83.67589349 -0.01962215 C95.07494323 -0.01849791 106.4739897 -0.01953105 117.87303895 -0.02319461 C118.95285958 -0.02353909 118.95285958 -0.02353909 120.05449477 -0.02389053 C122.98646034 -0.02483217 125.9184259 -0.02578785 128.85039145 -0.02676172 C159.44347343 -0.03690846 190.03655357 -0.03996781 220.62963704 -0.04055383 C223.92322875 -0.04061858 227.21682045 -0.04068652 230.51041216 -0.04075724 C231.32772649 -0.04077424 232.14504083 -0.04079125 232.98712226 -0.04080877 C251.09740184 -0.04121719 269.20768107 -0.04340704 287.31796047 -0.04591308 C294.77490752 -0.04694145 302.23185458 -0.04793148 309.68880165 -0.04892933 C310.51273502 -0.04903992 311.33666838 -0.04915051 312.18556943 -0.04926445 C359.40624738 -0.05558923 406.6269251 -0.0597135 453.8476035 -0.0592559 C455.61499381 -0.05924012 457.38238412 -0.05922438 459.14977443 -0.05920869 C467.12940026 -0.05913531 475.1090261 -0.05904714 483.08865193 -0.05895481 C486.64696652 -0.05891368 490.20528112 -0.05887353 493.76359572 -0.05883349 C495.54459762 -0.0588131 497.32559953 -0.05879208 499.10660143 -0.05877043 C555.41000987 -0.05809035 611.71341202 -0.06540431 668.0168187 -0.07931072 C682.19944763 -0.08281178 696.38207657 -0.08628126 710.56470555 -0.08957511 C711.4380047 -0.08977799 712.31130385 -0.08998086 713.21106661 -0.09018988 C740.13245814 -0.09640611 767.05384915 -0.10017069 793.97524136 -0.1014331 C794.82063675 -0.10147305 795.66603214 -0.101513 796.53704557 -0.10155416 C815.09683365 -0.10240749 833.65662169 -0.10266861 852.21640978 -0.10238378 C858.85777572 -0.1022873 865.49914167 -0.10223526 872.14050761 -0.10220506 C873.79269665 -0.10219714 875.44488569 -0.10218694 877.09707473 -0.10217443 C903.41061132 -0.10199819 929.72414253 -0.10769279 956.03767758 -0.11632825 C982.54759602 -0.12498391 1009.057507 -0.12716458 1035.56742626 -0.12056693 C1039.23403001 -0.11965468 1042.90063378 -0.11881139 1046.56723756 -0.11800891 C1047.28596528 -0.11784882 1048.004693 -0.11768874 1048.74520036 -0.1175238 C1060.10690273 -0.11517452 1071.46859218 -0.11951974 1082.83029213 -0.1266801 C1094.01358766 -0.133587 1105.19686437 -0.13314145 1116.3801611 -0.12548796 C1122.35776903 -0.12160167 1128.33533125 -0.12084467 1134.31293599 -0.12894531 C1139.75905484 -0.13626097 1145.20509022 -0.13424455 1150.65120545 -0.12502145 C1152.60134782 -0.12331074 1154.55149685 -0.12489351 1156.50163241 -0.13032265 C1173.26837805 -0.17384649 1189.68665501 1.00942139 1206.13034409 4.43899983 C1207.7208458 4.76493123 1207.7208458 4.76493123 1209.34347886 5.0974471 C1217.93627078 6.91172067 1226.13571848 9.28887488 1234.44284409 12.12649983 C1235.81785178 12.5512855 1237.19420896 12.9717228 1238.57175034 13.38821858 C1251.73187418 17.44240495 1264.06212873 23.13875214 1276.44284409 29.12649983 C1277.50366196 29.6323763 1277.50366196 29.6323763 1278.5859105 30.14847249 C1303.14365758 41.9768331 1324.95609189 59.26616345 1344.44284409 78.12649983 C1345.03017319 78.69191487 1345.6175023 79.25732991 1346.22262925 79.83987874 C1353.50704726 86.87896131 1360.21426436 94.11832589 1366.44284409 102.12649983 C1367.20725816 103.07396077 1367.97167222 104.02142171 1368.75925034 104.99759358 C1398.3098344 142.23227815 1416.15853314 185.54776714 1424.44284409 232.12649983 C1424.57030015 232.82517171 1424.6977562 233.52384358 1424.82907456 234.24368733 C1427.73891857 250.36240717 1427.59068771 266.62921823 1427.58328599 282.94592732 C1427.58587391 285.24269494 1427.58888824 287.53946211 1427.59228939 289.83622867 C1427.6003124 296.11615351 1427.60214632 302.39606689 1427.60288686 308.67599624 C1427.60455443 314.76359338 1427.61087804 320.85118428 1427.61696527 326.9387783 C1427.63296949 343.2314915 1427.63892203 359.52420371 1427.64371402 375.81692336 C1427.64605541 383.53432825 1427.64965862 391.2517324 1427.65340939 398.96913671 C1427.66623949 425.42131135 1427.67695949 451.87348559 1427.68041199 478.32566327 C1427.68063362 479.98385641 1427.68085541 481.64204956 1427.68107735 483.3002427 C1427.68129798 484.96227603 1427.68151846 486.62430935 1427.68173879 488.28634268 C1427.68218133 491.62026876 1427.68262845 494.95419484 1427.68307847 498.28812093 C1427.68318786 499.11473088 1427.68329725 499.94134083 1427.68340996 500.79299957 C1427.68703874 527.58203149 1427.70295483 554.37103632 1427.72626883 581.16005787 C1427.75091153 609.52802457 1427.76458687 637.8959758 1427.76577991 666.26395351 C1427.76595135 669.38299793 1427.76616677 672.50204235 1427.76641434 675.62108678 C1427.76647011 676.38900166 1427.76652588 677.15691655 1427.76658334 677.94810159 C1427.76772984 690.25985182 1427.77871742 702.57157404 1427.7933014 714.88331484 C1427.80772773 727.27702201 1427.81086894 739.67069359 1427.80286142 752.06440686 C1427.79882094 758.76722704 1427.79980428 765.46994244 1427.81391877 772.17275685 C1427.82675583 778.3255602 1427.82537511 784.47820079 1427.81332806 790.63100423 C1427.81138792 792.84027429 1427.81437014 795.04955629 1427.82317242 797.25880967 C1427.90517887 819.25898084 1425.56729483 840.72493011 1420.44284409 862.12649983 C1420.1924437 863.22526448 1420.1924437 863.22526448 1419.93698472 864.34622639 C1410.26935426 906.5541379 1389.35056871 946.91626068 1360.44284409 979.12649983 C1359.57401597 980.10489827 1358.70518784 981.08329671 1357.81003159 982.09134358 C1347.47854025 993.61471179 1336.69491396 1004.63766274 1324.44284409 1014.12649983 C1323.46186753 1014.91282796 1322.48089097 1015.69915608 1321.47018784 1016.50931233 C1282.62702214 1047.40950175 1234.92545443 1066.44018836 1185.83996171 1072.67560452 C1183.65613899 1072.96546067 1181.4757724 1073.28349547 1179.30126542 1073.63650769 C1165.7936554 1075.66161197 1152.27717072 1075.39235145 1138.64792222 1075.35355061 C1135.85741921 1075.35186694 1133.06691953 1075.35321695 1130.27641648 1075.35443562 C1124.29783161 1075.35547795 1118.31929081 1075.34927015 1112.34071702 1075.33795995 C1103.69699812 1075.32161861 1095.05330026 1075.31648817 1086.40956759 1075.31398396 C1072.38142246 1075.30962031 1058.35330075 1075.29634754 1044.32516831 1075.27737874 C1030.70830751 1075.25898535 1017.09145311 1075.24484583 1003.47458237 1075.23636311 C1002.6334662 1075.23583767 1001.79235003 1075.23531222 1000.92574549 1075.23477085 C996.70558351 1075.23216054 992.48542149 1075.22963318 988.26525944 1075.22714704 C953.32443351 1075.20645601 918.38365097 1075.16960879 883.44284409 1075.12649983 C883.44284409 1040.14649983 883.44284409 1005.16649983 883.44284409 969.12649983 C895.92576279 969.09677083 895.92576279 969.09677083 908.66086167 969.06644124 C935.34702504 969.00150995 962.03315336 968.92696934 988.71927397 968.84644822 C992.87070142 968.8339307 997.02212912 968.82149772 1001.17355698 968.80911702 C1001.99996399 968.80665103 1002.826371 968.80418503 1003.67782065 968.80164431 C1017.0248177 968.76201812 1030.37182312 968.72922613 1043.71884439 968.69900002 C1057.43392159 968.66778674 1071.1489636 968.62913588 1084.86400115 968.58370978 C1093.31365282 968.55595389 1101.76327902 968.53386559 1110.21296378 968.51923732 C1116.02251152 968.50862158 1121.83200967 968.490723 1127.64151988 968.4673328 C1130.9835698 968.4540848 1134.32549117 968.44490872 1137.66757554 968.44228619 C1189.40880113 968.39444806 1233.06324434 954.84612732 1271.44284409 919.12649983 C1272.12089097 918.50259358 1272.79893784 917.87868733 1273.49753159 917.23587483 C1303.73525188 888.33395745 1320.50007114 844.29127171 1321.62809771 803.05337411 C1321.72352885 797.29524643 1321.70995634 791.5374469 1321.69681138 785.77873677 C1321.69911999 783.55774967 1321.70229919 781.33676333 1321.70626587 779.11577857 C1321.71456752 773.05487081 1321.71050974 766.99402654 1321.70429343 760.93311864 C1321.70021836 755.05455343 1321.70557292 749.17600137 1321.71058816 743.29743798 C1321.7210864 730.5419786 1321.72022012 717.78653933 1321.71443034 705.03107807 C1321.70938838 693.86757004 1321.70809086 682.70406936 1321.71047562 671.54056042 C1321.71062839 670.79848668 1321.71078116 670.05641293 1321.71093856 669.2918521 C1321.7115613 666.27910912 1321.7121981 663.26636614 1321.71285809 660.25362317 C1321.71896882 632.02209683 1321.71344082 603.79058326 1321.7026643 575.55905889 C1321.69317488 550.5090226 1321.69402236 525.45900665 1321.70358628 500.40897053 C1321.71430945 472.22878616 1321.71853438 444.04861305 1321.71236175 415.86842692 C1321.71172037 412.86103628 1321.71109469 409.85364564 1321.71047562 406.846255 C1321.71031747 406.10582417 1321.71015931 405.36539333 1321.70999637 404.60252519 C1321.70772706 393.45015966 1321.71037145 382.2978023 1321.71543473 371.1454379 C1321.72116713 358.45643412 1321.71969413 345.7674535 1321.70887324 333.07845259 C1321.70363206 326.60941447 1321.70153323 320.14041752 1321.70817155 313.67137975 C1321.7141654 307.74048199 1321.71079957 301.80966327 1321.70021644 295.87877261 C1321.6979969 293.74236708 1321.69908585 291.60595476 1321.70396802 289.46955366 C1321.73052985 276.87213986 1321.1443635 264.61261778 1319.44284409 252.12649983 C1319.22532247 250.49776082 1319.22532247 250.49776082 1319.00340647 248.83611798 C1316.93075502 234.12931914 1312.57166932 219.62978876 1306.44284409 206.12649983 C1306.15038804 205.48116292 1305.85793198 204.835826 1305.55661362 204.17093343 C1286.8344568 163.54514158 1252.96261813 132.52692198 1211.21237534 116.87259358 C1209.99155259 116.42569173 1209.99155259 116.42569173 1208.74606675 115.96976155 C1207.31696047 115.44653354 1205.89134619 114.91352356 1204.47165269 114.36526936 C1177.13368258 103.85178793 1146.2752198 105.54296764 1117.53281201 105.61883098 C1111.59670653 105.62999678 1105.66063823 105.61768558 1099.72453564 105.60852349 C1089.34646882 105.59568078 1078.96846999 105.59739769 1068.59040612 105.60930318 C1057.46945988 105.62199012 1046.34856138 105.62583969 1035.22760934 105.61918896 C1034.52196592 105.61877275 1033.8163225 105.61835654 1033.08929595 105.61792772 C1030.21475438 105.61620277 1027.34021286 105.61441488 1024.46567137 105.61254753 C997.76925877 105.59521061 971.07288134 105.59729966 944.37646836 105.61188382 C918.66103062 105.62591374 892.94560878 105.63292277 867.23016709 105.63017529 C865.6122531 105.63001241 863.99433911 105.62985037 862.37642512 105.62968918 C855.87407739 105.62903083 849.37172965 105.62832706 842.86938192 105.62756384 C824.69569326 105.62545272 806.52200467 105.62469967 788.34831589 105.62498063 C787.52089711 105.62499301 786.69347832 105.62500539 785.84098624 105.62501814 C759.49551651 105.62550717 733.15005172 105.63192507 706.80458421 105.64253777 C705.95069757 105.64288121 705.09681093 105.64322465 704.21704894 105.64357849 C690.35215814 105.64917652 676.48726748 105.65511103 662.62237682 105.66106755 C607.61900254 105.6846759 552.615656 105.69085831 497.61227769 105.68045491 C494.13507019 105.6798017 490.65786268 105.67915038 487.18065518 105.67849941 C485.89104682 105.67825786 485.89104682 105.67825786 484.57538576 105.67801142 C475.05344235 105.67623184 465.53149894 105.6745097 456.00955552 105.67285699 C454.72862349 105.67263294 454.72862349 105.67263294 453.42181404 105.67240436 C408.11161698 105.66454217 362.80142237 105.67015794 317.49122618 105.68097028 C310.99736222 105.6825194 304.50349824 105.68403277 298.00963427 105.68554511 C295.58787873 105.68611334 293.1661232 105.68669482 290.74436766 105.68727684 C273.04721746 105.69147486 255.35007003 105.69367843 237.65291947 105.69059175 C236.85637164 105.69045314 236.0598238 105.69031453 235.23913816 105.69017172 C231.2290584 105.68946137 227.21897865 105.68871517 223.20889891 105.68795436 C194.20248817 105.68246022 165.19610664 105.68661606 136.18970227 105.70794291 C133.32875833 105.71000508 130.46781435 105.71202183 127.60687035 105.71400326 C126.90477561 105.71449421 126.20268086 105.71498516 125.47931051 105.71549098 C114.38772944 105.72298323 103.29617437 105.72050268 92.20459373 105.71382942 C81.28372971 105.70747576 70.36290836 105.71219155 59.44205242 105.72770772 C53.60678331 105.73569951 47.77161688 105.73905461 41.93634838 105.72913516 C36.61727723 105.72019631 31.29840269 105.72529588 25.97934923 105.7411146 C24.07750677 105.74440119 22.17564708 105.74279228 20.27381619 105.73538611 C-11.12743392 105.62223753 -39.89559099 112.34476367 -67.55715591 127.12649983 C-68.18428481 127.45940022 -68.81141372 127.79230061 -69.45754653 128.13528889 C-77.46936838 132.42643746 -84.65285394 137.20852671 -91.55715591 143.12649983 C-92.641891 144.02898867 -93.72790461 144.92994231 -94.81496841 145.82962483 C-127.78634543 173.220216 -148.96271958 212.58979649 -154.55715591 255.12649983 C-155.20257355 262.9655157 -155.09571209 270.82848924 -155.05836135 278.6876418 C-155.06226361 280.9917288 -155.06791142 283.29581338 -155.07513225 285.59989238 C-155.08977189 291.87213813 -155.07977444 298.14412988 -155.06539553 304.41636711 C-155.05537426 310.50480827 -155.06428387 316.5931979 -155.07251947 322.68163679 C-155.08963808 335.88880038 -155.08421734 349.09588048 -155.06916229 362.30304226 C-155.05607219 373.86198015 -155.0509219 385.42088917 -155.05348045 396.97983426 C-155.05372107 398.1332521 -155.05372107 398.1332521 -155.05396655 399.30997131 C-155.05463022 402.43196302 -155.05533265 405.55395472 -155.05609189 408.67594641 C-155.06310452 437.91947767 -155.04766336 467.16295819 -155.02146844 496.40647654 C-154.99835841 522.34335896 -154.99296559 548.28018561 -155.00320083 574.217076 C-155.0058032 580.85977331 -155.00838832 587.50247062 -155.01079875 594.14516801 C-155.0110962 594.96316166 -155.01139365 595.78115531 -155.01170011 596.62393665 C-155.01932864 618.34604028 -155.01289055 640.0681394 -155.00210273 661.790241 C-155.00095502 664.12982104 -154.99981184 666.46940108 -154.99867591 668.80898112 C-154.99792066 670.36075867 -154.99715502 671.91253621 -154.9963789 673.46431374 C-154.99073907 685.01054202 -154.99203798 696.55675582 -154.99660712 708.10298413 C-155.00173318 721.24267522 -154.99578166 734.38231245 -154.97571283 747.52199017 C-154.96574601 754.21839698 -154.96068946 760.91470549 -154.96860534 767.61112279 C-154.9757183 773.75428948 -154.96872759 779.89728083 -154.95100171 786.04042459 C-154.94699331 788.24945704 -154.94789545 790.45850575 -154.95452058 792.6675319 C-155.00704781 811.83932596 -153.81223859 830.86732642 -147.55715591 849.12649983 C-147.33076431 849.81711507 -147.1043727 850.5077303 -146.87112075 851.21927327 C-135.65511533 885.23005141 -114.74760499 915.1879974 -85.55715591 936.12649983 C-84.96773208 936.5496346 -84.37830825 936.97276936 -83.77102309 937.40872639 C-67.06519024 949.26186977 -48.98472706 957.43741435 -29.24465591 962.81399983 C-28.55976089 963.00437825 -27.87486587 963.19475667 -27.16921645 963.39090413 C-12.56479466 967.17100788 2.06248232 968.55925423 17.10528153 968.47605962 C19.89195942 968.46198405 22.67795165 968.46894981 25.46463364 968.48090047 C33.37132213 968.51141132 41.27783289 968.50699896 49.18454331 968.48685139 C54.06312275 968.47584663 58.94117618 968.48929268 63.81968278 968.51674718 C65.65498127 968.52212506 67.49033448 968.5182874 69.32558793 968.50434941 C87.32532582 968.36905742 101.81700346 971.77910215 115.71628159 984.14993733 C126.5010725 995.26529654 130.74748562 1008.96220843 130.72131699 1024.05373067 C130.7271094 1025.25210893 130.7329018 1026.45048719 130.73886973 1027.68517995 C130.75290334 1030.99868628 130.75809773 1034.31199079 130.75951833 1037.62551218 C130.76322079 1041.20349743 130.77838048 1044.78143655 130.79213303 1048.35939473 C130.81438313 1054.55419811 130.82940993 1060.74898504 130.83950013 1066.9438197 C130.85409926 1075.9004523 130.87963954 1084.85702756 130.90783142 1093.81362648 C130.95327699 1108.34588091 130.98990103 1122.87814362 131.02096909 1137.41043538 C131.05116379 1151.52535899 131.08551829 1165.6402624 131.12546128 1179.75516194 C131.1291536 1181.06070741 131.1291536 1181.06070741 131.13292052 1182.39262753 C131.1452953 1186.75908209 131.1577518 1191.12553641 131.17024893 1195.49199063 C131.27378326 1231.7034658 131.36299756 1267.91496506 131.44284409 1304.12649983 C133.19398762 1302.69806691 134.94452008 1301.26888485 136.69479722 1299.83939046 C137.66969102 1299.04359578 138.64458482 1298.2478011 139.64902085 1297.42789143 C143.13601351 1294.55550656 146.54816182 1291.60673699 149.94284409 1288.62649983 C154.22370181 1284.89102945 158.52623195 1281.20185252 162.94284409 1277.62649983 C167.9763295 1273.54892856 172.86617718 1269.32144068 177.75094956 1265.06839436 C183.40549288 1260.14772333 189.11756496 1255.29868884 194.85007066 1250.46927327 C197.55099221 1248.19228544 200.24661653 1245.90904189 202.94284409 1243.62649983 C204.02615274 1242.70980399 205.10948606 1241.7931373 206.19284409 1240.87649983 C206.72909409 1240.42274983 207.26534409 1239.96899983 207.81784409 1239.50149983 C261.44284409 1194.12649983 315.06784409 1148.75149983 461.31759995 1025.00174397 C462.40179647 1024.08432186 463.48594355 1023.16684131 464.57004136 1022.24930257 C467.2647672 1019.96871439 469.96032221 1017.68912168 472.65768784 1015.41165608 C473.73198136 1014.5041925 474.80619997 1013.59664024 475.88034409 1012.68899983 C476.41256577 1012.23927815 476.94478745 1011.78955647 477.49313706 1011.32620686 C480.93510056 1008.41361714 484.3603263 1005.48227764 487.77804917 1002.54129475 C493.41756523 997.68951085 499.08468157 992.88293657 504.87643784 988.21243733 C506.556205 986.84714713 508.21624856 985.45713518 509.85300034 984.04056233 C524.89768317 971.27092911 539.64419928 968.81205107 558.734348 968.89944905 C560.46979105 968.90001401 562.20523457 968.89969495 563.94067734 968.89856404 C568.62592862 968.89799285 573.3110764 968.90970922 577.99630374 968.92371196 C582.90233709 968.93625836 587.8083731 968.93739289 592.71442002 968.93976277 C601.99309317 968.94596608 611.27171891 968.96236129 620.55037123 968.98246175 C633.09682655 969.00904831 645.64329494 969.01980268 658.18977135 969.03146619 C677.94083108 969.05024274 697.69179077 969.09009609 717.44284409 969.12649983 C717.44284409 1004.10649983 717.44284409 1039.08649983 717.44284409 1075.12649983 C701.15811753 1075.07815999 701.15811753 1075.07815999 684.54440659 1075.02884358 C677.66284466 1075.02846223 670.78140764 1075.03035582 663.89987534 1075.04251546 C652.97925591 1075.06138953 642.05919248 1075.07102859 631.13864487 1075.02029866 C623.18444945 1074.98339131 615.23096407 1074.97822171 607.27673823 1075.01067042 C603.06732063 1075.02674712 598.85923424 1075.02726559 594.64992493 1074.9897334 C590.68147709 1074.95485141 586.71532317 1074.9626524 582.74694031 1075.00212926 C581.2966058 1075.00922815 579.84609918 1075.00119904 578.39596146 1074.97627515 C570.65008486 1074.85229099 565.59171142 1075.25457193 559.68048447 1080.54448384 C558.24644534 1082.0516612 556.83039719 1083.57641976 555.44284409 1085.12649983 C553.70805295 1086.5823178 551.96157027 1088.02460456 550.19284409 1089.43899983 C545.92553377 1092.89492017 541.72972634 1096.42027882 537.56784409 1100.00149983 C531.42268435 1105.28913694 525.245986 1110.53762021 519.05173081 1115.76761311 C516.3471212 1118.05196169 513.64512282 1120.33939491 510.94284409 1122.62649983 C509.8595231 1123.54318109 508.77618978 1124.45984776 507.69284409 1125.37649983 C507.15659409 1125.83024983 506.62034409 1126.28399983 506.06784409 1126.75149983 C488.19284409 1141.87649983 488.19284409 1141.87649983 486.56808823 1143.25125569 C485.48389171 1144.1686778 484.39974464 1145.08615835 483.31564683 1146.0036971 C480.62092099 1148.28428527 477.92536597 1150.56387798 475.22800034 1152.84134358 C474.15370683 1153.74880716 473.07948822 1154.65635943 472.00534409 1155.56399983 C471.47312241 1156.01372151 470.94090073 1156.46344319 470.39255112 1156.9267928 C466.95102593 1159.83901162 463.52630753 1162.77006291 460.10885972 1165.71048421 C455.45102483 1169.71815239 450.77980773 1173.69491597 446.00534409 1177.56399983 C440.89976945 1181.70710974 435.94484356 1186.00880434 430.98996323 1190.32938069 C426.50533558 1194.23071624 421.93802739 1198.01135145 417.31784409 1201.75149983 C413.80736771 1204.65145859 410.37451682 1207.63408121 406.94284409 1210.62649983 C401.81056753 1215.101845 396.61099136 1219.4665711 391.31784409 1223.75149983 C387.80736771 1226.65145859 384.37451682 1229.63408121 380.94284409 1232.62649983 C375.81056753 1237.101845 370.61099136 1241.4665711 365.31784409 1245.75149983 C361.80736771 1248.65145859 358.37451682 1251.63408121 354.94284409 1254.62649983 C349.81056753 1259.101845 344.61099136 1263.4665711 339.31784409 1267.75149983 C335.80736771 1270.65145859 332.37451682 1273.63408121 328.94284409 1276.62649983 C324.66068305 1280.36054426 320.35953141 1284.05108629 315.94284409 1287.62649983 C310.90935868 1291.7040711 306.019511 1295.93155898 301.13473862 1300.1846053 C295.4801953 1305.10527633 289.76812323 1309.95431082 284.03561753 1314.78372639 C281.33469597 1317.06071422 278.63907165 1319.34395777 275.94284409 1321.62649983 C274.85953545 1322.54319567 273.77620213 1323.45986236 272.69284409 1324.37649983 C272.15659409 1324.83024983 271.62034409 1325.28399983 271.06784409 1325.75149983 C229.63034409 1360.81399983 229.63034409 1360.81399983 188.19284409 1395.87649983 C187.38846909 1396.55748738 187.38846909 1396.55748738 186.56784409 1397.25223225 C185.48547317 1398.16759673 184.40214034 1399.08182503 183.31784409 1399.99490803 C180.58572415 1402.29808187 177.87373394 1404.61927329 175.19284409 1406.98196858 C154.38340035 1425.20351515 130.85119789 1434.81045046 103.04196519 1433.36038655 C81.40545237 1431.41338493 59.43294697 1419.65512944 45.44284409 1403.12649983 C32.55496965 1386.18939457 25.08667297 1368.54225204 25.20233506 1347.10425252 C25.19977179 1345.34571751 25.19977179 1345.34571751 25.19715673 1343.55165654 C25.19444778 1340.32474056 25.2006381 1337.09798822 25.21071285 1333.87109154 C25.21939603 1330.38111911 25.21642376 1326.8911535 25.2149083 1323.40117329 C25.21386251 1317.36355117 25.220107 1311.32597246 25.23138398 1305.28836125 C25.24767768 1296.55912818 25.25285094 1287.82991597 25.25535996 1279.10066934 C25.259731 1264.93609054 25.27302404 1250.77153485 25.29196519 1236.60696858 C25.3103393 1222.85208694 25.3244883 1209.09721159 25.33298081 1195.34232014 C25.33350626 1194.49365364 25.33403171 1193.64498713 25.33457308 1192.77060346 C25.33718326 1188.51284954 25.33971065 1184.25509557 25.34219688 1179.99734157 C25.36291098 1144.70704452 25.39812038 1109.41677431 25.44284409 1074.12649983 C24.49569031 1074.13533696 23.54853654 1074.14417409 22.57268113 1074.15327901 C18.97684386 1074.18438359 15.38101777 1074.20339566 11.78508347 1074.21919698 C10.2440677 1074.22755789 8.70306474 1074.23897486 7.16209763 1074.25380391 C-32.24290077 1074.62284135 -71.30016756 1064.56111349 -106.55715591 1047.12649983 C-107.75477554 1046.53699544 -107.75477554 1046.53699544 -108.9765895 1045.93558186 C-125.19494539 1037.87029003 -140.32318914 1028.33196303 -154.55715591 1017.12649983 C-155.45563247 1016.42138264 -156.35410903 1015.71626546 -157.27981216 1014.98978108 C-172.75732512 1002.58550091 -187.2989715 988.72975011 -199.55715591 973.12649983 C-200.40311157 972.09255402 -201.25083643 971.06005376 -202.10012466 970.02884358 C-221.73708007 945.97034579 -236.16409493 918.30924288 -246.55715591 889.12649983 C-246.81819106 888.4054305 -247.07922622 887.68436116 -247.34817153 886.94144124 C-252.04976656 873.87265452 -255.22314123 860.5815258 -257.68215591 846.93899983 C-257.84079116 846.08048421 -257.99942641 845.22196858 -258.1628688 844.33743733 C-261.24079113 826.50716104 -261.85199537 808.6444687 -261.81785232 790.59227437 C-261.82088029 788.29104036 -261.82477297 785.98980736 -261.82944489 783.6885761 C-261.8396505 777.4241226 -261.83756221 771.15972681 -261.83326429 764.89526874 C-261.83103894 758.81412571 -261.83822725 752.73299957 -261.84502455 746.65186115 C-261.86019858 732.69485908 -261.86197644 718.73787526 -261.85950152 704.78086666 C-261.857663 693.99688205 -261.85944014 683.21290336 -261.86372596 672.42891949 C-261.86432838 670.87508163 -261.86492958 669.32124376 -261.86552956 667.76740589 C-261.8664369 665.42541103 -261.86734557 663.08341616 -261.86826191 660.74142129 C-261.87668153 638.98973401 -261.88103401 617.23804894 -261.87685519 595.48636025 C-261.87669882 594.66776624 -261.87654244 593.84917223 -261.87638133 593.00577234 C-261.87557564 588.85759222 -261.87472987 584.70941211 -261.87386803 580.56123201 C-261.87369694 579.73751194 -261.87352585 578.91379188 -261.87334958 578.06511059 C-261.87300292 576.39935194 -261.87265439 574.73359329 -261.87230399 573.06783464 C-261.8669487 547.15777012 -261.87487582 521.24773965 -261.89333755 495.33768147 C-261.91409544 466.17148743 -261.92477306 437.00531447 -261.92076206 407.83911264 C-261.92036677 404.72379476 -261.92000521 401.60847688 -261.91966468 398.493159 C-261.91957395 397.72619053 -261.91948322 396.95922207 -261.91938974 396.16901214 C-261.91822822 384.63697775 -261.92483795 373.1049648 -261.9354766 361.57293576 C-261.94757707 348.44361345 -261.94903209 335.31433807 -261.93668643 322.185015 C-261.9306768 315.49620858 -261.92962976 308.80750485 -261.94168884 302.11869878 C-261.95263076 295.9777979 -261.94934671 289.83706398 -261.93542715 283.69617065 C-261.9328029 281.49244732 -261.93507386 279.28871054 -261.94316301 277.08500049 C-262.0995913 231.23201694 -251.40318968 186.57147172 -229.55715591 146.12649983 C-229.21362075 145.47955159 -228.87008559 144.83260335 -228.51614028 144.16605061 C-220.34099108 128.82830496 -210.47223972 114.63689327 -199.55715591 101.12649983 C-199.11855239 100.58348225 -198.67994888 100.04046468 -198.22805434 99.48099202 C-186.73304162 85.38953611 -173.94992264 72.26183461 -159.55715591 61.12649983 C-158.84688247 60.52579671 -158.13660903 59.92509358 -157.40481216 59.30618733 C-143.2236242 47.39299253 -126.99183733 37.59164501 -110.55715591 29.12649983 C-109.82384048 28.74687093 -109.09052505 28.36724202 -108.33498794 27.97610921 C-80.51621231 13.75479739 -50.08709533 4.76283457 -19.04055434 1.40433186 C-17.00182223 1.1762472 -14.96820222 0.9029036 -12.93676575 0.61704157 C-8.60981755 0.07760328 -4.35604966 -0.01306737 0 0 Z " fill="#FFFEFE" transform="translate(416.5571559071541,283.8735001683235)"/>
<path d="M0 0 C1.83304688 0.51046875 1.83304688 0.51046875 3.703125 1.03125 C27.53991626 8.29019055 45.57264665 24.17399574 58.18359375 45.5234375 C70.41705561 68.93802042 71.92007833 93.87480401 64.30639648 118.89477539 C56.5960785 142.78611572 39.39406957 161.77763868 17.25 173.1875 C10.04574543 176.78663655 2.84229533 179.12420774 -5 181 C-5.58402588 181.17362061 -6.16805176 181.34724121 -6.76977539 181.52612305 C-22.24802289 184.81493294 -42.59078699 183.40118145 -57 177 C-58.0206958 176.55793213 -58.0206958 176.55793213 -59.06201172 176.10693359 C-83.29134803 165.38357025 -100.91089352 147.70747715 -110.7890625 123.17578125 C-111.38847656 121.60376953 -111.38847656 121.60376953 -112 120 C-112.31710937 119.18917969 -112.63421875 118.37835937 -112.9609375 117.54296875 C-120.82278793 95.94234009 -118.22459297 71.26227935 -108.84057617 50.625 C-98.01951087 28.09501611 -78.72588819 10.28767532 -55.19311523 1.69677734 C-37.41727314 -4.29850213 -18.0651282 -5.1614652 0 0 Z " fill="#FFFEFE" transform="translate(678,729)"/>
<path d="M0 0 C2.71765935 2.17412748 5.3409222 4.41327625 7.93359375 6.734375 C8.88298828 7.56001953 8.88298828 7.56001953 9.8515625 8.40234375 C23.9885552 21.50413332 32.19168774 40.19397065 35.93359375 58.734375 C36.12308594 59.51425781 36.31257813 60.29414062 36.5078125 61.09765625 C40.31916736 84.70008312 33.50212804 109.67544613 19.74609375 128.984375 C7.09729656 144.77371259 -6.96017301 155.74998529 -26.06640625 162.734375 C-27.1440625 163.14816406 -28.22171875 163.56195312 -29.33203125 163.98828125 C-44.46787476 168.94717062 -62.68728299 168.45783258 -78.06640625 164.734375 C-79.21367188 164.48558594 -80.3609375 164.23679687 -81.54296875 163.98046875 C-95.32312079 160.44139744 -107.5302961 153.26362138 -118.06640625 143.734375 C-118.88367187 143.00992188 -119.7009375 142.28546875 -120.54296875 141.5390625 C-136.06193103 126.98102668 -147.20307026 106.14134995 -148.20874023 84.69970703 C-148.99971238 56.13212798 -148.99971238 56.13212798 -144.06640625 43.734375 C-143.69257812 42.77402344 -143.31875 41.81367187 -142.93359375 40.82421875 C-141.75666206 38.05336303 -140.46075151 35.40198793 -139.06640625 32.734375 C-138.57527344 31.78175781 -138.08414062 30.82914063 -137.578125 29.84765625 C-126.58126037 9.76984851 -108.37415768 -6.62764628 -86.37890625 -13.640625 C-84.27958736 -14.20078598 -82.17538306 -14.74299996 -80.06640625 -15.265625 C-78.56787109 -15.71035156 -78.56787109 -15.71035156 -77.0390625 -16.1640625 C-50.74634037 -23.39207438 -21.58624158 -15.94907021 0 0 Z " fill="#FFFEFE" transform="translate(1449.06640625,744.265625)"/>
<path d="M0 0 C2.50092176 2.21886292 4.93017832 4.49557927 7.34765625 6.8046875 C7.9509375 7.33320312 8.55421875 7.86171875 9.17578125 8.40625 C20.06647361 18.33001173 26.62288658 32.10354621 31.34765625 45.8046875 C31.70859375 46.83464844 32.06953125 47.86460937 32.44140625 48.92578125 C38.91844452 71.50545633 34.10305414 96.98875469 23.59765625 117.4921875 C10.58168337 140.14203008 -9.53883386 154.86505802 -34.1171875 162.89453125 C-58.38306359 169.14198885 -84.07795898 164.92004946 -105.65234375 152.8046875 C-109.54158003 150.37031368 -113.12102314 147.7307975 -116.65234375 144.8046875 C-117.94398438 143.73927734 -117.94398438 143.73927734 -119.26171875 142.65234375 C-134.67213376 129.36669808 -143.21240204 113.07912887 -148.65234375 93.8046875 C-148.92046875 92.87527344 -149.18859375 91.94585938 -149.46484375 90.98828125 C-154.53247716 69.06372838 -150.03995789 44.36266012 -138.47558594 25.2824707 C-134.18665754 18.52178456 -129.30473861 12.47586108 -123.65234375 6.8046875 C-122.85570312 5.98484375 -122.0590625 5.165 -121.23828125 4.3203125 C-109.16609189 -7.42363002 -95.01880274 -14.59104163 -78.65234375 -18.1953125 C-77.56695313 -18.43894531 -76.4815625 -18.68257812 -75.36328125 -18.93359375 C-48.44424774 -23.94257847 -21.20596817 -17.55192063 0 0 Z " fill="#FFFEFE" transform="translate(1081.65234375,746.1953125)"/>
</svg>
